<svg xmlns="http://www.w3.org/2000/svg" xmlns:xlink="http://www.w3.org/1999/xlink" width="500" zoomAndPan="magnify" viewBox="0 0 375 374.999991" height="500" preserveAspectRatio="xMidYMid meet" version="1.2"><defs><clipPath id="7b56e69709"><path d="M 345.777344 206.214844 L 356.445312 206.214844 L 356.445312 215.378906 L 345.777344 215.378906 Z M 345.777344 206.214844 "/></clipPath><clipPath id="0314f9739b"><path d="M 356.441406 210.796875 L 353.773438 215.378906 L 348.445312 215.378906 L 345.777344 210.796875 L 348.445312 206.214844 L 353.773438 206.214844 Z M 356.441406 210.796875 "/></clipPath></defs><g id="d60933b37b"><g style="fill:#232323;fill-opacity:1;"><g transform="translate(90.003807, 217.090138)"><path style="stroke:none" d="M 15.140625 -34.9375 C 16.992188 -34.9375 18.804688 -34.664062 20.578125 -34.125 C 22.359375 -33.582031 23.679688 -33.050781 24.546875 -32.53125 L 25.78125 -31.6875 L 22.625 -25.453125 C 22.375 -25.617188 22.023438 -25.832031 21.578125 -26.09375 C 21.140625 -26.363281 20.3125 -26.71875 19.09375 -27.15625 C 17.875 -27.601562 16.738281 -27.828125 15.6875 -27.828125 C 14.375 -27.828125 13.363281 -27.546875 12.65625 -26.984375 C 11.957031 -26.429688 11.609375 -25.6875 11.609375 -24.75 C 11.609375 -24.28125 11.773438 -23.84375 12.109375 -23.4375 C 12.441406 -23.03125 13.007812 -22.597656 13.8125 -22.140625 C 14.613281 -21.691406 15.316406 -21.328125 15.921875 -21.046875 C 16.535156 -20.765625 17.484375 -20.347656 18.765625 -19.796875 C 20.984375 -18.859375 22.875 -17.578125 24.4375 -15.953125 C 26 -14.328125 26.78125 -12.488281 26.78125 -10.4375 C 26.78125 -8.46875 26.425781 -6.75 25.71875 -5.28125 C 25.019531 -3.8125 24.050781 -2.660156 22.8125 -1.828125 C 21.582031 -0.992188 20.21875 -0.378906 18.71875 0.015625 C 17.21875 0.421875 15.59375 0.625 13.84375 0.625 C 12.351562 0.625 10.882812 0.46875 9.4375 0.15625 C 8 -0.144531 6.796875 -0.519531 5.828125 -0.96875 C 4.859375 -1.425781 3.984375 -1.878906 3.203125 -2.328125 C 2.421875 -2.773438 1.851562 -3.148438 1.5 -3.453125 L 0.953125 -3.90625 L 4.859375 -10.484375 C 5.191406 -10.203125 5.648438 -9.847656 6.234375 -9.421875 C 6.816406 -8.992188 7.847656 -8.414062 9.328125 -7.6875 C 10.816406 -6.96875 12.128906 -6.609375 13.265625 -6.609375 C 16.566406 -6.609375 18.21875 -7.734375 18.21875 -9.984375 C 18.21875 -10.453125 18.097656 -10.882812 17.859375 -11.28125 C 17.628906 -11.6875 17.210938 -12.09375 16.609375 -12.5 C 16.015625 -12.90625 15.488281 -13.222656 15.03125 -13.453125 C 14.570312 -13.691406 13.820312 -14.050781 12.78125 -14.53125 C 11.75 -15.019531 10.984375 -15.390625 10.484375 -15.640625 C 8.398438 -16.660156 6.789062 -17.941406 5.65625 -19.484375 C 4.519531 -21.023438 3.953125 -22.679688 3.953125 -24.453125 C 3.953125 -27.535156 5.085938 -30.050781 7.359375 -32 C 9.628906 -33.957031 12.222656 -34.9375 15.140625 -34.9375 Z M 15.140625 -34.9375 "/></g></g><g style="fill:#232323;fill-opacity:1;"><g transform="translate(117.952154, 217.090138)"><path style="stroke:none" d="M 0.953125 -17.171875 C 0.953125 -22.140625 2.644531 -26.34375 6.03125 -29.78125 C 9.414062 -33.21875 13.492188 -34.9375 18.265625 -34.9375 C 23.054688 -34.9375 27.128906 -33.222656 30.484375 -29.796875 C 33.835938 -26.378906 35.515625 -22.171875 35.515625 -17.171875 C 35.515625 -12.160156 33.863281 -7.941406 30.5625 -4.515625 C 27.269531 -1.085938 23.171875 0.625 18.265625 0.625 C 13.242188 0.625 9.101562 -1.070312 5.84375 -4.46875 C 2.582031 -7.863281 0.953125 -12.097656 0.953125 -17.171875 Z M 9.40625 -17.171875 C 9.40625 -15.367188 9.679688 -13.726562 10.234375 -12.25 C 10.785156 -10.769531 11.753906 -9.515625 13.140625 -8.484375 C 14.523438 -7.460938 16.234375 -6.953125 18.265625 -6.953125 C 21.171875 -6.953125 23.363281 -7.945312 24.84375 -9.9375 C 26.332031 -11.9375 27.078125 -14.347656 27.078125 -17.171875 C 27.078125 -19.972656 26.320312 -22.378906 24.8125 -24.390625 C 23.300781 -26.398438 21.117188 -27.40625 18.265625 -27.40625 C 15.429688 -27.40625 13.242188 -26.398438 11.703125 -24.390625 C 10.171875 -22.378906 9.40625 -19.972656 9.40625 -17.171875 Z M 9.40625 -17.171875 "/></g></g><g style="fill:#232323;fill-opacity:1;"><g transform="translate(154.426406, 217.090138)"><path style="stroke:none" d="M 10.3125 -34.3125 L 10.3125 -6.859375 L 22.125 -6.859375 L 22.125 0 L 2.5 0 L 2.5 -34.3125 Z M 10.3125 -34.3125 "/></g></g><g style="fill:#232323;fill-opacity:1;"><g transform="translate(177.924638, 217.090138)"><path style="stroke:none" d="M 28.859375 -34.3125 L 28.859375 -12.1875 C 28.859375 -7.96875 27.722656 -4.773438 25.453125 -2.609375 C 23.179688 -0.453125 19.851562 0.625 15.46875 0.625 C 11.09375 0.625 7.765625 -0.453125 5.484375 -2.609375 C 3.210938 -4.773438 2.078125 -7.96875 2.078125 -12.1875 L 2.078125 -34.3125 L 9.90625 -34.3125 L 9.90625 -14.46875 C 9.90625 -11.695312 10.335938 -9.769531 11.203125 -8.6875 C 12.078125 -7.613281 13.5 -7.078125 15.46875 -7.078125 C 17.4375 -7.078125 18.859375 -7.613281 19.734375 -8.6875 C 20.609375 -9.769531 21.046875 -11.695312 21.046875 -14.46875 L 21.046875 -34.3125 Z M 28.859375 -34.3125 "/></g></g><g style="fill:#232323;fill-opacity:1;"><g transform="translate(208.867446, 217.090138)"><path style="stroke:none" d="M 0.328125 -27.453125 L 0.328125 -34.3125 L 24.453125 -34.3125 L 24.453125 -27.453125 L 16.3125 -27.453125 L 16.3125 0 L 8.484375 0 L 8.484375 -27.453125 Z M 0.328125 -27.453125 "/></g></g><g style="fill:#232323;fill-opacity:1;"><g transform="translate(233.654958, 217.090138)"><path style="stroke:none" d="M 10.3125 -34.3125 L 10.3125 0 L 2.5 0 L 2.5 -34.3125 Z M 10.3125 -34.3125 "/></g></g><g style="fill:#232323;fill-opacity:1;"><g transform="translate(246.464615, 217.090138)"><path style="stroke:none" d="M 0.953125 -17.171875 C 0.953125 -22.140625 2.644531 -26.34375 6.03125 -29.78125 C 9.414062 -33.21875 13.492188 -34.9375 18.265625 -34.9375 C 23.054688 -34.9375 27.128906 -33.222656 30.484375 -29.796875 C 33.835938 -26.378906 35.515625 -22.171875 35.515625 -17.171875 C 35.515625 -12.160156 33.863281 -7.941406 30.5625 -4.515625 C 27.269531 -1.085938 23.171875 0.625 18.265625 0.625 C 13.242188 0.625 9.101562 -1.070312 5.84375 -4.46875 C 2.582031 -7.863281 0.953125 -12.097656 0.953125 -17.171875 Z M 9.40625 -17.171875 C 9.40625 -15.367188 9.679688 -13.726562 10.234375 -12.25 C 10.785156 -10.769531 11.753906 -9.515625 13.140625 -8.484375 C 14.523438 -7.460938 16.234375 -6.953125 18.265625 -6.953125 C 21.171875 -6.953125 23.363281 -7.945312 24.84375 -9.9375 C 26.332031 -11.9375 27.078125 -14.347656 27.078125 -17.171875 C 27.078125 -19.972656 26.320312 -22.378906 24.8125 -24.390625 C 23.300781 -26.398438 21.117188 -27.40625 18.265625 -27.40625 C 15.429688 -27.40625 13.242188 -26.398438 11.703125 -24.390625 C 10.171875 -22.378906 9.40625 -19.972656 9.40625 -17.171875 Z M 9.40625 -17.171875 "/></g></g><g style="fill:#232323;fill-opacity:1;"><g transform="translate(282.938867, 217.090138)"><path style="stroke:none" d="M 10.3125 -21.296875 L 10.3125 0 L 2.5 0 L 2.5 -34.3125 L 10.3125 -34.3125 L 23.953125 -13.015625 L 24.046875 -13.015625 L 24.046875 -34.3125 L 31.859375 -34.3125 L 31.859375 0 L 24.046875 0 L 10.40625 -21.296875 Z M 10.3125 -21.296875 "/></g></g><g style="fill:#232323;fill-opacity:1;"><g transform="translate(317.292037, 217.090138)"><path style="stroke:none" d="M 15.140625 -34.9375 C 16.992188 -34.9375 18.804688 -34.664062 20.578125 -34.125 C 22.359375 -33.582031 23.679688 -33.050781 24.546875 -32.53125 L 25.78125 -31.6875 L 22.625 -25.453125 C 22.375 -25.617188 22.023438 -25.832031 21.578125 -26.09375 C 21.140625 -26.363281 20.3125 -26.71875 19.09375 -27.15625 C 17.875 -27.601562 16.738281 -27.828125 15.6875 -27.828125 C 14.375 -27.828125 13.363281 -27.546875 12.65625 -26.984375 C 11.957031 -26.429688 11.609375 -25.6875 11.609375 -24.75 C 11.609375 -24.28125 11.773438 -23.84375 12.109375 -23.4375 C 12.441406 -23.03125 13.007812 -22.597656 13.8125 -22.140625 C 14.613281 -21.691406 15.316406 -21.328125 15.921875 -21.046875 C 16.535156 -20.765625 17.484375 -20.347656 18.765625 -19.796875 C 20.984375 -18.859375 22.875 -17.578125 24.4375 -15.953125 C 26 -14.328125 26.78125 -12.488281 26.78125 -10.4375 C 26.78125 -8.46875 26.425781 -6.75 25.71875 -5.28125 C 25.019531 -3.8125 24.050781 -2.660156 22.8125 -1.828125 C 21.582031 -0.992188 20.21875 -0.378906 18.71875 0.015625 C 17.21875 0.421875 15.59375 0.625 13.84375 0.625 C 12.351562 0.625 10.882812 0.46875 9.4375 0.15625 C 8 -0.144531 6.796875 -0.519531 5.828125 -0.96875 C 4.859375 -1.425781 3.984375 -1.878906 3.203125 -2.328125 C 2.421875 -2.773438 1.851562 -3.148438 1.5 -3.453125 L 0.953125 -3.90625 L 4.859375 -10.484375 C 5.191406 -10.203125 5.648438 -9.847656 6.234375 -9.421875 C 6.816406 -8.992188 7.847656 -8.414062 9.328125 -7.6875 C 10.816406 -6.96875 12.128906 -6.609375 13.265625 -6.609375 C 16.566406 -6.609375 18.21875 -7.734375 18.21875 -9.984375 C 18.21875 -10.453125 18.097656 -10.882812 17.859375 -11.28125 C 17.628906 -11.6875 17.210938 -12.09375 16.609375 -12.5 C 16.015625 -12.90625 15.488281 -13.222656 15.03125 -13.453125 C 14.570312 -13.691406 13.820312 -14.050781 12.78125 -14.53125 C 11.75 -15.019531 10.984375 -15.390625 10.484375 -15.640625 C 8.398438 -16.660156 6.789062 -17.941406 5.65625 -19.484375 C 4.519531 -21.023438 3.953125 -22.679688 3.953125 -24.453125 C 3.953125 -27.535156 5.085938 -30.050781 7.359375 -32 C 9.628906 -33.957031 12.222656 -34.9375 15.140625 -34.9375 Z M 15.140625 -34.9375 "/></g></g><g style="fill:#232323;fill-opacity:1;"><g transform="translate(345.249888, 217.090138)"><path style="stroke:none" d=""/></g></g><g clip-rule="nonzero" clip-path="url(#7b56e69709)"><g clip-rule="nonzero" clip-path="url(#0314f9739b)"><path style=" stroke:none;fill-rule:nonzero;fill:#0e4644;fill-opacity:1;" d="M 345.777344 206.214844 L 356.445312 206.214844 L 356.445312 215.378906 L 345.777344 215.378906 Z M 345.777344 206.214844 "/></g></g><g style="fill:#0e4644;fill-opacity:1;"><g transform="translate(90.003807, 179.659836)"><path style="stroke:none" d="M 10.3125 -21.296875 L 10.3125 0 L 2.5 0 L 2.5 -34.3125 L 10.3125 -34.3125 L 23.953125 -13.015625 L 24.046875 -13.015625 L 24.046875 -34.3125 L 31.859375 -34.3125 L 31.859375 0 L 24.046875 0 L 10.40625 -21.296875 Z M 10.3125 -21.296875 "/></g></g><g style="fill:#0e4644;fill-opacity:1;"><g transform="translate(122.443457, 179.659836)"><path style="stroke:none" d="M 0.953125 -17.171875 C 0.953125 -22.140625 2.644531 -26.34375 6.03125 -29.78125 C 9.414062 -33.21875 13.492188 -34.9375 18.265625 -34.9375 C 23.054688 -34.9375 27.128906 -33.222656 30.484375 -29.796875 C 33.835938 -26.378906 35.515625 -22.171875 35.515625 -17.171875 C 35.515625 -12.160156 33.863281 -7.941406 30.5625 -4.515625 C 27.269531 -1.085938 23.171875 0.625 18.265625 0.625 C 13.242188 0.625 9.101562 -1.070312 5.84375 -4.46875 C 2.582031 -7.863281 0.953125 -12.097656 0.953125 -17.171875 Z M 9.40625 -17.171875 C 9.40625 -15.367188 9.679688 -13.726562 10.234375 -12.25 C 10.785156 -10.769531 11.753906 -9.515625 13.140625 -8.484375 C 14.523438 -7.460938 16.234375 -6.953125 18.265625 -6.953125 C 21.171875 -6.953125 23.363281 -7.945312 24.84375 -9.9375 C 26.332031 -11.9375 27.078125 -14.347656 27.078125 -17.171875 C 27.078125 -19.972656 26.320312 -22.378906 24.8125 -24.390625 C 23.300781 -26.398438 21.117188 -27.40625 18.265625 -27.40625 C 15.429688 -27.40625 13.242188 -26.398438 11.703125 -24.390625 C 10.171875 -22.378906 9.40625 -19.972656 9.40625 -17.171875 Z M 9.40625 -17.171875 "/></g></g><g style="fill:#0e4644;fill-opacity:1;"><g transform="translate(157.004188, 179.659836)"><path style="stroke:none" d="M 28.859375 -34.3125 L 28.859375 -12.1875 C 28.859375 -7.96875 27.722656 -4.773438 25.453125 -2.609375 C 23.179688 -0.453125 19.851562 0.625 15.46875 0.625 C 11.09375 0.625 7.765625 -0.453125 5.484375 -2.609375 C 3.210938 -4.773438 2.078125 -7.96875 2.078125 -12.1875 L 2.078125 -34.3125 L 9.90625 -34.3125 L 9.90625 -14.46875 C 9.90625 -11.695312 10.335938 -9.769531 11.203125 -8.6875 C 12.078125 -7.613281 13.5 -7.078125 15.46875 -7.078125 C 17.4375 -7.078125 18.859375 -7.613281 19.734375 -8.6875 C 20.609375 -9.769531 21.046875 -11.695312 21.046875 -14.46875 L 21.046875 -34.3125 Z M 28.859375 -34.3125 "/></g></g><g style="fill:#0e4644;fill-opacity:1;"><g transform="translate(186.033476, 179.659836)"><path style="stroke:none" d="M 15.140625 -34.9375 C 16.992188 -34.9375 18.804688 -34.664062 20.578125 -34.125 C 22.359375 -33.582031 23.679688 -33.050781 24.546875 -32.53125 L 25.78125 -31.6875 L 22.625 -25.453125 C 22.375 -25.617188 22.023438 -25.832031 21.578125 -26.09375 C 21.140625 -26.363281 20.3125 -26.71875 19.09375 -27.15625 C 17.875 -27.601562 16.738281 -27.828125 15.6875 -27.828125 C 14.375 -27.828125 13.363281 -27.546875 12.65625 -26.984375 C 11.957031 -26.429688 11.609375 -25.6875 11.609375 -24.75 C 11.609375 -24.28125 11.773438 -23.84375 12.109375 -23.4375 C 12.441406 -23.03125 13.007812 -22.597656 13.8125 -22.140625 C 14.613281 -21.691406 15.316406 -21.328125 15.921875 -21.046875 C 16.535156 -20.765625 17.484375 -20.347656 18.765625 -19.796875 C 20.984375 -18.859375 22.875 -17.578125 24.4375 -15.953125 C 26 -14.328125 26.78125 -12.488281 26.78125 -10.4375 C 26.78125 -8.46875 26.425781 -6.75 25.71875 -5.28125 C 25.019531 -3.8125 24.050781 -2.660156 22.8125 -1.828125 C 21.582031 -0.992188 20.21875 -0.378906 18.71875 0.015625 C 17.21875 0.421875 15.59375 0.625 13.84375 0.625 C 12.351562 0.625 10.882812 0.46875 9.4375 0.15625 C 8 -0.144531 6.796875 -0.519531 5.828125 -0.96875 C 4.859375 -1.425781 3.984375 -1.878906 3.203125 -2.328125 C 2.421875 -2.773438 1.851562 -3.148438 1.5 -3.453125 L 0.953125 -3.90625 L 4.859375 -10.484375 C 5.191406 -10.203125 5.648438 -9.847656 6.234375 -9.421875 C 6.816406 -8.992188 7.847656 -8.414062 9.328125 -7.6875 C 10.816406 -6.96875 12.128906 -6.609375 13.265625 -6.609375 C 16.566406 -6.609375 18.21875 -7.734375 18.21875 -9.984375 C 18.21875 -10.453125 18.097656 -10.882812 17.859375 -11.28125 C 17.628906 -11.6875 17.210938 -12.09375 16.609375 -12.5 C 16.015625 -12.90625 15.488281 -13.222656 15.03125 -13.453125 C 14.570312 -13.691406 13.820312 -14.050781 12.78125 -14.53125 C 11.75 -15.019531 10.984375 -15.390625 10.484375 -15.640625 C 8.398438 -16.660156 6.789062 -17.941406 5.65625 -19.484375 C 4.519531 -21.023438 3.953125 -22.679688 3.953125 -24.453125 C 3.953125 -27.535156 5.085938 -30.050781 7.359375 -32 C 9.628906 -33.957031 12.222656 -34.9375 15.140625 -34.9375 Z M 15.140625 -34.9375 "/></g></g></g></svg>