<svg xmlns="http://www.w3.org/2000/svg" xmlns:xlink="http://www.w3.org/1999/xlink" width="500" zoomAndPan="magnify" viewBox="0 0 375 374.999991" height="500" preserveAspectRatio="xMidYMid meet" version="1.2"><defs><clipPath id="c0b89064f9"><path d="M 134.207031 112.105469 L 240.609375 112.105469 L 240.609375 223.855469 L 134.207031 223.855469 Z M 134.207031 112.105469 "/></clipPath><clipPath id="0c409581b4"><path d="M 190.304688 112.140625 C 194.734375 112.410156 198.628906 114.871094 199.101562 117.886719 C 199.515625 121.292969 195.855469 124.066406 190.914062 123.859375 C 185.894531 123.777344 181.90625 120.730469 182 117.28125 C 182.109375 114.238281 185.839844 112.039062 190.304688 112.140625 M 205.496094 214.761719 C 209.101562 214.179688 211.320312 215.644531 210.5625 217.855469 C 209.804688 219.753906 206.578125 221.75 203.394531 222.421875 C 200.046875 223 197.5625 221.988281 197.957031 219.980469 C 198.324219 217.671875 201.71875 215.261719 205.496094 214.761719 Z M 219.589844 191.175781 C 220.25 190.757812 220.933594 190.394531 221.605469 190.117188 C 224.113281 187.886719 226.09375 184.695312 227.128906 181.175781 C 228.191406 177.28125 228.078125 173.273438 226.835938 169.953125 C 226.84375 169.996094 226.84375 169.996094 226.855469 169.996094 C 224.648438 166.964844 223.613281 162.59375 224.449219 158.3125 C 225.558594 151.851562 230.355469 148.6875 234.863281 150.984375 C 238.671875 153.195312 241.019531 159.394531 240.445312 165.101562 C 239.886719 168.898438 238.113281 171.863281 235.785156 173.070312 C 235.796875 173.074219 235.796875 173.074219 235.808594 173.074219 C 233.792969 175.160156 232.050781 178.4375 231.035156 182.125 C 230.449219 184.128906 230.125 186.105469 230.070312 187.921875 C 229.824219 192.007812 231.09375 191.472656 231.492188 194.324219 C 231.746094 196.738281 230.84375 199.78125 228.921875 202.652344 C 226.195312 206.546875 221.800781 209.5625 218 209.765625 C 209.722656 209.492188 214.167969 202.722656 210.058594 198.101562 C 209.039062 196.9375 207.734375 195.921875 206.191406 195.128906 C 204.359375 194.214844 202.335938 193.636719 200.222656 193.449219 C 192.832031 192.660156 187.535156 196.53125 185.480469 203.257812 C 184.917969 204.964844 184.78125 206.664062 184.964844 208.25 C 185.082031 209.476562 186.480469 212.507812 186.480469 212.503906 C 189.074219 214.59375 190.101562 217.339844 188.953125 219.804688 C 187.203125 223.050781 181.484375 224.535156 175.863281 223.515625 C 170.230469 222.160156 166.101562 218.476562 166.777344 214.875 C 167.136719 213.234375 168.296875 211.855469 170.007812 210.882812 C 173.003906 209.082031 173.839844 210.242188 176.929688 207.0625 C 178.230469 205.644531 179.234375 203.890625 179.8125 201.902344 C 183.082031 190.25 172.78125 189.015625 175.359375 178.773438 C 177.246094 171.511719 184.765625 167.152344 192.101562 169.117188 C 192.109375 169.125 192.109375 169.125 192.125 169.125 C 193.367188 169.429688 194.585938 169.910156 195.742188 170.578125 C 205.214844 176.09375 198.195312 184.160156 209.265625 190.226562 C 212.550781 191.941406 216.257812 192.257812 219.621094 191.152344 C 219.59375 191.179688 219.59375 191.179688 219.589844 191.175781 Z M 168.339844 146.71875 C 173.828125 149.699219 178.707031 149.21875 182.9375 145.332031 C 187.128906 141.558594 185.402344 141.089844 188.167969 137.683594 C 189.574219 135.96875 191.648438 134.703125 194.972656 133.980469 C 209.917969 131.355469 217.753906 154.832031 202.421875 158.792969 C 198.351562 159.851562 195.390625 159.332031 192.839844 157.851562 C 188.949219 155.609375 190.742188 155.257812 185.570312 153.898438 C 179.730469 152.402344 175.3125 154.476562 171.789062 160.1875 C 170.4375 164.800781 166.859375 168.414062 162.457031 169.578125 C 162.449219 169.578125 162.449219 169.578125 162.445312 169.578125 C 155.871094 171.414062 149.503906 167.214844 148.023438 160.363281 C 147.203125 156.085938 148.476562 151.6875 151.101562 148.488281 C 155.25 143.683594 157.066406 142.695312 158.019531 135.742188 C 158.382812 133.441406 158.226562 131.34375 157.519531 129.664062 C 156.46875 127.039062 155.777344 127.667969 154.296875 126.21875 C 153.019531 124.984375 152.566406 123.246094 153.238281 121.183594 C 154.652344 117.472656 159.792969 113.785156 164.953125 112.558594 C 170.480469 111.613281 174.675781 113.773438 174.214844 117.808594 C 174.035156 119.414062 173.261719 121.03125 171.984375 122.503906 C 169.117188 125.976562 167.742188 124.839844 165.117188 129.472656 C 164.15625 131.246094 163.527344 133.21875 163.347656 135.25 C 162.917969 141.027344 164.601562 143.335938 168.339844 146.71875 Z M 145.269531 177.976562 C 150.898438 178.277344 156.09375 183.980469 156.53125 190.480469 C 157.128906 196.652344 153.050781 200.648438 147.804688 199.722656 C 143.0625 198.605469 138.726562 193.46875 137.742188 187.957031 C 137.003906 182.164062 140.199219 177.570312 145.269531 177.976562 Z M 141.007812 133.695312 C 144.136719 132.765625 146.277344 135.179688 145.574219 139.261719 C 144.980469 143.542969 141.621094 147.554688 138.28125 148.085938 C 135.3125 148.636719 133.707031 145.859375 134.5 141.972656 C 135.410156 138.320312 138.230469 134.683594 141.007812 133.695312 Z M 220.691406 126.121094 C 223.570312 126.929688 226.460938 129.890625 227.234375 132.8125 C 227.988281 135.992188 226.171875 138.152344 223.082031 137.574219 C 219.796875 137.0625 216.585938 133.789062 216.0625 130.414062 C 215.496094 127.25 217.601562 125.367188 220.691406 126.121094 Z M 220.691406 126.121094 "/></clipPath><linearGradient x1="435.933383" gradientTransform="matrix(0.249187,0,0,-0.250225,133.709092,446.973227)" y1="1331.207027" x2="-4.749592" gradientUnits="userSpaceOnUse" y2="898.545627" id="f01fe7150a"><stop style="stop-color:#0deff6;stop-opacity:1;" offset="0"/><stop style="stop-color:#0deff6;stop-opacity:1;" offset="0.125"/><stop style="stop-color:#0deff6;stop-opacity:1;" offset="0.1875"/><stop style="stop-color:#0deff6;stop-opacity:1;" offset="0.21875"/><stop style="stop-color:#0deff6;stop-opacity:1;" offset="0.226562"/><stop style="stop-color:#0eeef6;stop-opacity:1;" offset="0.230469"/><stop style="stop-color:#0fedf6;stop-opacity:1;" offset="0.234375"/><stop style="stop-color:#11ebf6;stop-opacity:1;" offset="0.238281"/><stop style="stop-color:#12eaf6;stop-opacity:1;" offset="0.242188"/><stop style="stop-color:#14e8f6;stop-opacity:1;" offset="0.246094"/><stop style="stop-color:#16e6f6;stop-opacity:1;" offset="0.25"/><stop style="stop-color:#17e5f6;stop-opacity:1;" offset="0.253906"/><stop style="stop-color:#19e3f6;stop-opacity:1;" offset="0.257812"/><stop style="stop-color:#1ae2f6;stop-opacity:1;" offset="0.261719"/><stop style="stop-color:#1ce0f6;stop-opacity:1;" offset="0.265625"/><stop style="stop-color:#1edef6;stop-opacity:1;" offset="0.269531"/><stop style="stop-color:#1fddf6;stop-opacity:1;" offset="0.273438"/><stop style="stop-color:#21dbf6;stop-opacity:1;" offset="0.277344"/><stop style="stop-color:#23d9f6;stop-opacity:1;" offset="0.28125"/><stop style="stop-color:#24d8f6;stop-opacity:1;" offset="0.285156"/><stop style="stop-color:#26d6f6;stop-opacity:1;" offset="0.289063"/><stop style="stop-color:#28d4f6;stop-opacity:1;" offset="0.292969"/><stop style="stop-color:#29d3f6;stop-opacity:1;" offset="0.296875"/><stop style="stop-color:#2bd1f6;stop-opacity:1;" offset="0.300781"/><stop style="stop-color:#2dcff6;stop-opacity:1;" offset="0.304688"/><stop style="stop-color:#2ecef6;stop-opacity:1;" offset="0.308594"/><stop style="stop-color:#30ccf6;stop-opacity:1;" offset="0.3125"/><stop style="stop-color:#32cbf7;stop-opacity:1;" offset="0.316406"/><stop style="stop-color:#33c9f7;stop-opacity:1;" offset="0.320313"/><stop style="stop-color:#35c7f7;stop-opacity:1;" offset="0.324219"/><stop style="stop-color:#37c6f7;stop-opacity:1;" offset="0.328125"/><stop style="stop-color:#38c4f7;stop-opacity:1;" offset="0.332031"/><stop style="stop-color:#3ac2f7;stop-opacity:1;" offset="0.335938"/><stop style="stop-color:#3bc1f7;stop-opacity:1;" offset="0.339844"/><stop style="stop-color:#3dbff7;stop-opacity:1;" offset="0.34375"/><stop style="stop-color:#3fbdf7;stop-opacity:1;" offset="0.347656"/><stop style="stop-color:#40bcf7;stop-opacity:1;" offset="0.351563"/><stop style="stop-color:#42baf7;stop-opacity:1;" offset="0.355469"/><stop style="stop-color:#44b8f7;stop-opacity:1;" offset="0.359375"/><stop style="stop-color:#45b7f7;stop-opacity:1;" offset="0.363281"/><stop style="stop-color:#47b5f7;stop-opacity:1;" offset="0.367188"/><stop style="stop-color:#49b4f7;stop-opacity:1;" offset="0.371094"/><stop style="stop-color:#4ab2f7;stop-opacity:1;" offset="0.375"/><stop style="stop-color:#4cb0f7;stop-opacity:1;" offset="0.378906"/><stop style="stop-color:#4eaff7;stop-opacity:1;" offset="0.382812"/><stop style="stop-color:#4fadf7;stop-opacity:1;" offset="0.386719"/><stop style="stop-color:#51abf7;stop-opacity:1;" offset="0.390625"/><stop style="stop-color:#53aaf7;stop-opacity:1;" offset="0.394531"/><stop style="stop-color:#54a8f7;stop-opacity:1;" offset="0.398438"/><stop style="stop-color:#56a6f7;stop-opacity:1;" offset="0.402344"/><stop style="stop-color:#57a5f7;stop-opacity:1;" offset="0.40625"/><stop style="stop-color:#59a3f7;stop-opacity:1;" offset="0.410156"/><stop style="stop-color:#5ba1f7;stop-opacity:1;" offset="0.414063"/><stop style="stop-color:#5ca0f7;stop-opacity:1;" offset="0.417969"/><stop style="stop-color:#5e9ef7;stop-opacity:1;" offset="0.421875"/><stop style="stop-color:#609df7;stop-opacity:1;" offset="0.425781"/><stop style="stop-color:#619bf7;stop-opacity:1;" offset="0.429688"/><stop style="stop-color:#6399f7;stop-opacity:1;" offset="0.433594"/><stop style="stop-color:#6598f7;stop-opacity:1;" offset="0.4375"/><stop style="stop-color:#6696f7;stop-opacity:1;" offset="0.441406"/><stop style="stop-color:#6894f7;stop-opacity:1;" offset="0.445312"/><stop style="stop-color:#6a93f7;stop-opacity:1;" offset="0.449219"/><stop style="stop-color:#6b91f7;stop-opacity:1;" offset="0.453125"/><stop style="stop-color:#6d8ff7;stop-opacity:1;" offset="0.457031"/><stop style="stop-color:#6f8ef7;stop-opacity:1;" offset="0.460938"/><stop style="stop-color:#708cf7;stop-opacity:1;" offset="0.464844"/><stop style="stop-color:#728af7;stop-opacity:1;" offset="0.46875"/><stop style="stop-color:#7489f7;stop-opacity:1;" offset="0.472656"/><stop style="stop-color:#7587f7;stop-opacity:1;" offset="0.476563"/><stop style="stop-color:#7786f7;stop-opacity:1;" offset="0.480469"/><stop style="stop-color:#7884f7;stop-opacity:1;" offset="0.484375"/><stop style="stop-color:#7a82f7;stop-opacity:1;" offset="0.488281"/><stop style="stop-color:#7c81f7;stop-opacity:1;" offset="0.492188"/><stop style="stop-color:#7d7ff7;stop-opacity:1;" offset="0.496094"/><stop style="stop-color:#7f7df7;stop-opacity:1;" offset="0.5"/><stop style="stop-color:#817cf7;stop-opacity:1;" offset="0.503906"/><stop style="stop-color:#827af7;stop-opacity:1;" offset="0.507812"/><stop style="stop-color:#8478f7;stop-opacity:1;" offset="0.511719"/><stop style="stop-color:#8677f7;stop-opacity:1;" offset="0.515625"/><stop style="stop-color:#8775f8;stop-opacity:1;" offset="0.519531"/><stop style="stop-color:#8974f8;stop-opacity:1;" offset="0.523438"/><stop style="stop-color:#8b72f8;stop-opacity:1;" offset="0.527344"/><stop style="stop-color:#8c70f8;stop-opacity:1;" offset="0.53125"/><stop style="stop-color:#8e6ff8;stop-opacity:1;" offset="0.535156"/><stop style="stop-color:#906df8;stop-opacity:1;" offset="0.539062"/><stop style="stop-color:#916bf8;stop-opacity:1;" offset="0.542969"/><stop style="stop-color:#936af8;stop-opacity:1;" offset="0.546875"/><stop style="stop-color:#9568f8;stop-opacity:1;" offset="0.550781"/><stop style="stop-color:#9666f8;stop-opacity:1;" offset="0.554688"/><stop style="stop-color:#9865f8;stop-opacity:1;" offset="0.558594"/><stop style="stop-color:#9963f8;stop-opacity:1;" offset="0.5625"/><stop style="stop-color:#9b61f8;stop-opacity:1;" offset="0.566406"/><stop style="stop-color:#9d60f8;stop-opacity:1;" offset="0.570313"/><stop style="stop-color:#9e5ef8;stop-opacity:1;" offset="0.574219"/><stop style="stop-color:#a05df8;stop-opacity:1;" offset="0.578125"/><stop style="stop-color:#a25bf8;stop-opacity:1;" offset="0.582031"/><stop style="stop-color:#a359f8;stop-opacity:1;" offset="0.585938"/><stop style="stop-color:#a558f8;stop-opacity:1;" offset="0.589844"/><stop style="stop-color:#a756f8;stop-opacity:1;" offset="0.59375"/><stop style="stop-color:#a854f8;stop-opacity:1;" offset="0.597656"/><stop style="stop-color:#aa53f8;stop-opacity:1;" offset="0.601563"/><stop style="stop-color:#ac51f8;stop-opacity:1;" offset="0.605469"/><stop style="stop-color:#ad4ff8;stop-opacity:1;" offset="0.609375"/><stop style="stop-color:#af4ef8;stop-opacity:1;" offset="0.613281"/><stop style="stop-color:#b14cf8;stop-opacity:1;" offset="0.617188"/><stop style="stop-color:#b24af8;stop-opacity:1;" offset="0.621094"/><stop style="stop-color:#b449f8;stop-opacity:1;" offset="0.625"/><stop style="stop-color:#b547f8;stop-opacity:1;" offset="0.628906"/><stop style="stop-color:#b746f8;stop-opacity:1;" offset="0.632813"/><stop style="stop-color:#b944f8;stop-opacity:1;" offset="0.636719"/><stop style="stop-color:#ba42f8;stop-opacity:1;" offset="0.640625"/><stop style="stop-color:#bc41f8;stop-opacity:1;" offset="0.644531"/><stop style="stop-color:#be3ff8;stop-opacity:1;" offset="0.648438"/><stop style="stop-color:#bf3df8;stop-opacity:1;" offset="0.652344"/><stop style="stop-color:#c13cf8;stop-opacity:1;" offset="0.65625"/><stop style="stop-color:#c33af8;stop-opacity:1;" offset="0.660156"/><stop style="stop-color:#c438f8;stop-opacity:1;" offset="0.664063"/><stop style="stop-color:#c637f8;stop-opacity:1;" offset="0.667969"/><stop style="stop-color:#c835f8;stop-opacity:1;" offset="0.671875"/><stop style="stop-color:#c933f8;stop-opacity:1;" offset="0.675781"/><stop style="stop-color:#cb32f8;stop-opacity:1;" offset="0.679688"/><stop style="stop-color:#cd30f8;stop-opacity:1;" offset="0.683594"/><stop style="stop-color:#ce2ff8;stop-opacity:1;" offset="0.6875"/><stop style="stop-color:#d02df8;stop-opacity:1;" offset="0.691406"/><stop style="stop-color:#d22bf8;stop-opacity:1;" offset="0.695312"/><stop style="stop-color:#d32af8;stop-opacity:1;" offset="0.699219"/><stop style="stop-color:#d528f8;stop-opacity:1;" offset="0.703125"/><stop style="stop-color:#d626f8;stop-opacity:1;" offset="0.707031"/><stop style="stop-color:#d825f8;stop-opacity:1;" offset="0.710938"/><stop style="stop-color:#da23f8;stop-opacity:1;" offset="0.714844"/><stop style="stop-color:#db21f8;stop-opacity:1;" offset="0.71875"/><stop style="stop-color:#dd20f9;stop-opacity:1;" offset="0.722656"/><stop style="stop-color:#df1ef9;stop-opacity:1;" offset="0.726562"/><stop style="stop-color:#e01cf9;stop-opacity:1;" offset="0.730469"/><stop style="stop-color:#e21bf9;stop-opacity:1;" offset="0.734375"/><stop style="stop-color:#e419f9;stop-opacity:1;" offset="0.738281"/><stop style="stop-color:#e518f9;stop-opacity:1;" offset="0.742188"/><stop style="stop-color:#e716f9;stop-opacity:1;" offset="0.746094"/><stop style="stop-color:#e914f9;stop-opacity:1;" offset="0.75"/><stop style="stop-color:#ea13f9;stop-opacity:1;" offset="0.753906"/><stop style="stop-color:#ec11f9;stop-opacity:1;" offset="0.757812"/><stop style="stop-color:#ee0ff9;stop-opacity:1;" offset="0.761719"/><stop style="stop-color:#ef0ef9;stop-opacity:1;" offset="0.765625"/><stop style="stop-color:#f10cf9;stop-opacity:1;" offset="0.769531"/><stop style="stop-color:#f30af9;stop-opacity:1;" offset="0.773438"/><stop style="stop-color:#f409f9;stop-opacity:1;" offset="0.777344"/><stop style="stop-color:#f607f9;stop-opacity:1;" offset="0.78125"/><stop style="stop-color:#f705f9;stop-opacity:1;" offset="0.785156"/><stop style="stop-color:#f904f9;stop-opacity:1;" offset="0.789062"/><stop style="stop-color:#fb02f9;stop-opacity:1;" offset="0.792969"/><stop style="stop-color:#fc01f9;stop-opacity:1;" offset="0.796875"/><stop style="stop-color:#fc01f9;stop-opacity:1;" offset="0.8125"/><stop style="stop-color:#fc01f9;stop-opacity:1;" offset="0.875"/><stop style="stop-color:#fc01f9;stop-opacity:1;" offset="1"/></linearGradient></defs><g id="ec644c47ef"><rect x="0" width="375" y="0" height="374.999991" style="fill:#ffffff;fill-opacity:1;stroke:none;"/><rect x="0" width="375" y="0" height="374.999991" style="fill:#000000;fill-opacity:1;stroke:none;"/><g style="fill:#ffffff;fill-opacity:1;"><g transform="translate(187.246465, 177.689811)"><path style="stroke:none" d="M 0.28125 -0.0625 C 0.28125 -0.0390625 0.28125 -0.0195312 0.28125 0 L 0.140625 0 C 0.140625 -0.0507812 0.15625 -0.128906 0.1875 -0.234375 C 0.226562 -0.359375 0.273438 -0.460938 0.328125 -0.546875 L 0.09375 -0.53125 C 0.0507812 -0.53125 0.0234375 -0.53125 0.015625 -0.53125 L 0.015625 -0.65625 L 0.265625 -0.65625 C 0.296875 -0.65625 0.320312 -0.65625 0.34375 -0.65625 C 0.375 -0.65625 0.394531 -0.65625 0.40625 -0.65625 C 0.445312 -0.65625 0.484375 -0.65625 0.515625 -0.65625 L 0.421875 -0.484375 C 0.328125 -0.285156 0.28125 -0.144531 0.28125 -0.0625 Z M 0.28125 -0.0625 "/></g></g><g clip-rule="nonzero" clip-path="url(#c0b89064f9)"><g clip-rule="nonzero" clip-path="url(#0c409581b4)"><path style=" stroke:none;fill-rule:nonzero;fill:url(#f01fe7150a);" d="M 134.207031 223.855469 L 134.207031 112.105469 L 240.609375 112.105469 L 240.609375 223.855469 Z M 134.207031 223.855469 "/></g></g></g></svg>